<svg xmlns="http://www.w3.org/2000/svg" viewBox="0 0 64 64">
  <path d="M49.4 11.3a2 2 0 00-1.5.6c-.5.3-.6 1-.6 1.5 0 .6.2 1.1.6 1.5.8.8 2.4.8 3.2 0 .5-.3.6-1 .6-1.6 0-.5-.3-1.1-.6-1.5-.4-.3-1.1-.5-1.7-.5zM32.1 20.1a12 12 0 000 23.8A12 12 0 0044 32a12 12 0 00-11.9-11.9z"/>
  <path d="M45.1 0H18.9A18.8 18.8 0 000 18.9V45c0 10.6 8.4 19 18.9 19H45c10.6 0 19-8.4 19-18.9V18.9C64 8.4 55.6 0 45.1 0zm-13 47.7a15.7 15.7 0 010-31.4 15.7 15.7 0 010 31.4zm23.5-34.2a6.4 6.4 0 01-1.8 4.2 6 6 0 01-8.6 0 6 6 0 010-8.6 6 6 0 018.6 0c1 1.3 1.8 2.8 1.8 4.4z"/>
</svg>